<svg xmlns="http://www.w3.org/2000/svg" width="32" height="32"><path fill="#6d8434" d="M16 0c8.837 0 16 7.163 16 16s-7.163 16-16 16S0 24.837 0 16 7.163 0 16 0z"/><path fill="#e8e8e2" d="M11.874 10.695a.59.59 0 0 0 0 1.18h.719l.18.72.006.025.8 3.201-.526.526c-.743.743-.217 2.012.834 2.012h5.061a.59.59 0 0 0 0-1.18h-5.061l.589-.589h3.882a.596.596 0 0 0 .527-.326l1.768-3.537a.596.596 0 0 0-.025-.573.592.592 0 0 0-.501-.28h-6.319l-.183-.733a.587.587 0 0 0-.572-.447h-1.179zm7.663 9.136a.882.882 0 0 1-1.509.625.884.884 0 1 1 1.509-.625zm-5.6.885a.882.882 0 0 0 .625-1.509.884.884 0 1 0-.625 1.509z"/></svg>